# xmcd CD database file
#
# Track frame offsets:
#	150
#	18802
#	37402
#	60352
#	81352
#	103402
#	125452
#	143827
#
# Disc length: 2163 seconds
#
# Revision: 0
# Processed by: cddbd v1.5.1PL2 Copyright (c) Steve Scherf et al.
# Submitted via: CDex 1.51
#
DISCID=6c087108
DTITLE=Tito Rojas - Borrón y Cuenta Nueva
DYEAR=2005
DGENRE=Salsa
TTITLE0=Si Me Faltas Tu
TTITLE1=Yo Soy el Malo
TTITLE2=Las Quiero A Las Dos (Dos Mujeres)
TTITLE3=Que Locura
TTITLE4=Cuando Un Hombre Se Enamora
TTITLE5=Si Me Pusieran A Elegir
TTITLE6=Esa Clase De Mujer
TTITLE7=Vamos Pa' La Rumba
EXTD=YEAR: 2005
EXTT0=
EXTT1=
EXTT2=
EXTT3=
EXTT4=
EXTT5=
EXTT6=
EXTT7=
PLAYORDER=
